<?xml version="1.0" standalone="no"?>
<!DOCTYPE svg PUBLIC "-//W3C//DTD SVG 20010904//EN"
 "http://www.w3.org/TR/2001/REC-SVG-20010904/DTD/svg10.dtd">
<svg version="1.0" xmlns="http://www.w3.org/2000/svg"
 width="512.000000pt" height="512.000000pt" viewBox="0 0 512.000000 512.000000"
 preserveAspectRatio="xMidYMid meet">
<metadata>
Created by potrace 1.11, written by Peter Selinger 2001-2013
</metadata>
<g transform="translate(0.000000,512.000000) scale(0.100000,-0.100000)"
fill="#000000" stroke="none">
<path d="M390 5104 c-30 -8 -80 -26 -110 -41 -72 -35 -188 -151 -223 -223 -61
-126 -57 23 -57 -2280 0 -2303 -4 -2154 57 -2280 35 -72 151 -188 223 -223
126 -61 -23 -57 2280 -57 2303 0 2154 -4 2280 57 72 35 188 151 223 223 61
126 57 -23 57 2280 0 2303 4 2154 -57 2280 -35 72 -151 188 -223 223 -127 61
23 57 -2285 56 -1816 0 -2118 -2 -2165 -15z m474 -1338 c19 -8 37 -25 44 -42
62 -154 646 -1868 658 -1934 9 -47 20 -89 24 -93 4 -4 15 32 24 80 14 71 604
1801 662 1941 18 44 64 62 157 62 131 0 167 -25 143 -102 -7 -23 -190 -549
-405 -1168 -234 -669 -400 -1133 -412 -1145 -17 -18 -35 -20 -158 -23 -113 -3
-145 0 -170 13 -17 8 -31 17 -31 19 0 1 -182 526 -405 1167 -223 640 -404
1173 -403 1184 5 34 63 55 156 55 48 0 97 -6 116 -14z m3087 -11 c253 -44 443
-161 518 -318 50 -106 65 -184 64 -347 -1 -236 -47 -365 -179 -495 -83 -82
-154 -126 -256 -162 -130 -45 -200 -52 -530 -53 l-308 0 0 -489 c0 -269 -3
-497 -6 -506 -12 -31 -59 -45 -153 -45 -81 0 -93 2 -118 24 l-28 24 0 1167 0
1167 28 24 28 24 428 0 c332 0 447 -3 512 -15z"/>
<path d="M3260 3075 l0 -435 293 0 c265 0 299 2 367 21 118 32 203 98 254 196
42 82 58 246 35 355 -25 117 -82 187 -194 240 -108 50 -172 58 -477 58 l-278
0 0 -435z"/>
</g>
</svg>
